# Blender v2.79 (sub 0) OBJ File: ''
# www.blender.org
mtllib sax_sax.mtl
o rdmobj00
v -2.848703 7.324097 0.000001
v -1.732629 7.026660 0.000000
v -1.571207 8.713174 0.000001
v 1.717852 8.757168 0.000001
v 2.888958 7.324097 0.000001
v 5.467436 8.570688 0.000001
v 4.312168 8.524101 0.000001
v 4.240932 7.341906 0.000001
v 6.620000 7.090934 0.000001
v -2.919938 8.483980 0.000001
v -5.454078 8.677555 0.000001
v -6.600000 7.110934 0.000001
v 1.757259 7.026660 0.000000
v 1.856146 4.599370 0.000000
v -0.318626 2.590118 -0.000000
v 2.265745 1.500660 -0.000000
v 2.283554 3.263719 -0.000000
v 0.318626 2.590118 -0.000000
v -1.019138 -0.018938 -0.000001
v -2.265745 1.500660 -0.000000
v 4.209274 15.906721 0.000002
v 3.026986 8.557363 0.000001
v 5.426277 7.180512 0.000001
v -4.100039 7.341906 0.000001
v -4.171273 8.499470 0.000001
v -5.426276 7.180511 0.000001
v -1.674374 5.640685 0.000000
v 1.676439 5.727488 0.000000
v -1.856146 4.599370 0.000000
v -0.805434 1.269148 -0.000000
v -2.283554 3.263719 -0.000000
v -0.005893 3.843543 -0.000000
v 1.019138 -0.018938 -0.000001
v 0.805434 1.269148 -0.000000
v 4.616264 1.877376 -0.000000
v 4.619336 -0.004088 -0.000001
v -4.616264 1.815074 -0.000000
v -4.598569 -0.004088 -0.000001
v -3.530583 10.256165 0.000001
v -3.514273 15.896048 0.000002
v 5.437022 11.933231 0.000001
v -7.341218 9.657532 0.000001
v -6.789149 9.657532 0.000001
v -7.465878 9.123272 0.000001
v -6.682296 9.123272 0.000001
v -7.546390 6.654079 0.000000
v -8.168116 6.335843 0.000000
v -8.584673 9.589359 0.000001
v -9.075617 8.039261 0.000001
v -7.430262 8.767097 0.000001
v -7.109704 7.057466 0.000001
v -7.869265 9.188293 0.000001
v -6.600000 8.700933 0.000001
v 6.722083 9.617455 0.000001
v 7.274152 9.617455 0.000001
v 7.398814 9.069837 0.000001
v 6.615232 9.069837 0.000001
v 9.088882 8.046390 0.000001
v 8.503891 9.549104 0.000001
v 6.619970 8.630934 0.000001
v 7.055998 7.030747 0.000000
v 8.114409 6.228615 0.000000
v 7.472554 6.627363 0.000000
v 7.376555 8.686945 0.000001
v 7.788482 9.168165 0.000001
v -2.848703 7.324097 0.000001
v -1.732629 7.026660 0.000000
v -1.571207 8.713174 0.000001
v 1.717852 8.757168 0.000001
v 2.888958 7.324097 0.000001
v 5.467436 8.570688 0.000001
v 4.312168 8.524101 0.000001
v 4.240932 7.341906 0.000001
v 6.620000 7.090934 0.000001
v -2.919938 8.483980 0.000001
v -5.454078 8.677555 0.000001
v -6.600000 7.110934 0.000001
v 1.757259 7.026660 0.000000
v 1.856146 4.599370 0.000000
v -0.318626 2.590118 -0.000000
v 2.265745 1.500660 -0.000000
v 2.283554 3.263719 -0.000000
v 0.318626 2.590118 -0.000000
v -1.019138 -0.018938 -0.000001
v -2.265745 1.500660 -0.000000
v 4.209274 15.906721 0.000002
v 3.026986 8.557363 0.000001
v 5.426277 7.180512 0.000001
v -4.100039 7.341906 0.000001
v -4.171273 8.499470 0.000001
v -5.426276 7.180511 0.000001
v -1.674374 5.640685 0.000000
v 1.676439 5.727488 0.000000
v -1.856146 4.599370 0.000000
v -0.805434 1.269148 -0.000000
v -2.283554 3.263719 -0.000000
v -0.005893 3.843543 -0.000000
v 1.019138 -0.018938 -0.000001
v 0.805434 1.269148 -0.000000
v 4.616264 1.877376 -0.000000
v 4.619336 -0.004088 -0.000001
v -4.616264 1.815074 -0.000000
v -4.598569 -0.004088 -0.000001
v -3.530583 10.256165 0.000001
v -3.514273 15.896048 0.000002
v 5.437022 11.933231 0.000001
v -7.341218 9.657532 0.000001
v -6.789149 9.657532 0.000001
v -7.465878 9.123272 0.000001
v -6.682296 9.123272 0.000001
v -7.546390 6.654079 0.000000
v -8.168116 6.335843 0.000000
v -8.584673 9.589359 0.000001
v -9.075617 8.039261 0.000001
v -7.430262 8.767097 0.000001
v -7.109704 7.057466 0.000001
v -7.869265 9.188293 0.000001
v -6.600000 8.700933 0.000001
v 6.722083 9.617455 0.000001
v 7.274152 9.617455 0.000001
v 7.398814 9.069837 0.000001
v 6.615232 9.069837 0.000001
v 9.088882 8.046390 0.000001
v 8.503891 9.549104 0.000001
v 6.619970 8.630934 0.000001
v 7.055998 7.030747 0.000000
v 8.114409 6.228615 0.000000
v 7.472554 6.627363 0.000000
v 7.376555 8.686945 0.000001
v 7.788482 9.168165 0.000001
vt 0.998290 -0.000000
vt 0.001819 -0.001484
vt 1.000000 -0.552369
vt 0.000000 -0.785503
vt 0.629353 -0.999762
vt 0.218495 -1.000000
vt 0.998290 -0.000000
vt 1.000000 -0.552369
vt 0.001819 -0.001484
vt 0.000000 -0.785503
vt 0.629353 -0.999762
vt 0.218495 -1.000000
vt 0.278371 -0.031129
vt 0.283759 -0.163292
vt 0.368182 -0.197184
vt 0.380393 -0.005013
vt 0.632168 -0.197184
vt 0.629187 -0.000000
vt 0.717773 -0.163292
vt 0.728214 -0.022767
vt 0.825429 -0.026557
vt 0.820040 -0.161263
vt 0.912817 -0.021248
vt 0.909703 -0.179653
vt 0.999998 -0.014384
vt 1.000000 -0.189860
vt 0.183716 -0.029364
vt 0.189104 -0.161263
vt 0.086681 -0.009071
vt 0.088784 -0.179653
vt 0.000000 -0.006408
vt 0.000000 -0.187581
vt 0.372589 -0.355110
vt 0.626054 -0.345219
vt 0.358839 -0.473763
vt 0.639648 -0.473763
vt 0.498798 -0.559887
vt 0.671978 -0.625955
vt 0.326509 -0.625955
vt 0.475142 -0.702709
vt 0.438318 -0.853228
vt 0.560169 -0.853228
vt 0.670631 -0.826848
vt 0.523345 -0.702709
vt 0.151394 -0.998308
vt 0.422153 -1.000000
vt 0.327856 -0.826848
vt 0.576334 -1.000000
vt 0.848664 -0.998308
vt 0.848431 -0.783923
vt 0.150056 -0.791022
vt 0.278371 -0.031129
vt 0.368182 -0.197184
vt 0.283759 -0.163292
vt 0.380393 -0.005013
vt 0.632168 -0.197184
vt 0.629187 -0.000000
vt 0.717773 -0.163292
vt 0.728214 -0.022767
vt 0.825429 -0.026557
vt 0.820040 -0.161263
vt 0.912817 -0.021248
vt 0.909703 -0.179653
vt 0.999998 -0.014384
vt 1.000000 -0.189860
vt 0.183716 -0.029364
vt 0.189104 -0.161263
vt 0.086681 -0.009071
vt 0.088784 -0.179653
vt 0.000000 -0.006408
vt 0.000000 -0.187581
vt 0.372589 -0.355110
vt 0.626054 -0.345219
vt 0.358839 -0.473763
vt 0.639648 -0.473763
vt 0.498798 -0.559887
vt 0.671978 -0.625955
vt 0.326509 -0.625955
vt 0.475142 -0.702709
vt 0.438318 -0.853228
vt 0.560169 -0.853228
vt 0.670631 -0.826848
vt 0.523345 -0.702709
vt 0.151394 -0.998308
vt 0.327856 -0.826848
vt 0.422153 -1.000000
vt 0.576334 -1.000000
vt 0.848664 -0.998308
vt 0.848431 -0.783923
vt 0.150056 -0.791022
vt 0.318280 -0.160840
vt 0.001388 -0.160840
vt 0.249036 -0.000000
vt 0.002301 -0.000000
vt 0.000000 -0.328762
vt 0.205889 -0.874052
vt 0.000000 -0.842065
vt 0.335375 -0.268067
vt 0.382284 -0.982900
vt 1.000000 -0.521814
vt 0.740463 -1.000000
vt 0.801688 -0.020524
vt 0.512706 -0.141265
vt 0.000000 -0.161595
vt 0.316772 -0.161595
vt 0.043195 -0.000000
vt 0.266376 -0.000000
vt 0.307773 -0.274581
vt 0.001805 -0.338185
vt 0.474299 -0.148321
vt 1.000000 -0.463600
vt 0.776104 -0.039059
vt 0.178184 -0.842007
vt 0.741432 -1.009445
vt 0.327692 -0.961040
vt 0.001817 -0.852434
vt 0.318280 -0.160840
vt 0.249036 -0.000000
vt 0.001388 -0.160840
vt 0.002301 -0.000000
vt 0.000000 -0.328762
vt 0.000000 -0.842065
vt 0.205889 -0.874052
vt 0.335375 -0.268067
vt 0.382284 -0.982900
vt 0.740463 -1.000000
vt 1.000000 -0.521814
vt 0.801688 -0.020524
vt 0.512706 -0.141265
vt 0.000000 -0.161595
vt 0.043195 -0.000000
vt 0.316772 -0.161595
vt 0.266376 -0.000000
vt 0.307773 -0.274581
vt 0.001805 -0.338185
vt 0.474299 -0.148321
vt 0.776104 -0.039059
vt 1.000000 -0.463600
vt 0.178184 -0.842007
vt 0.741432 -1.009445
vt 0.327692 -0.961040
vt 0.001817 -0.852434
vn -0.0000 -0.0000 1.0000
vn 0.0000 0.0000 -1.0000
usemtl head_front
s 1
f 21/1/1 40/2/1 41/3/1
f 39/4/1 4/5/1 41/3/1
f 41/3/1 40/2/1 39/4/1
f 4/5/1 39/4/1 3/6/1
usemtl head_back
f 86/7/2 106/8/2 105/9/2
f 104/10/2 106/8/2 69/11/2
f 106/8/2 104/10/2 105/9/2
f 69/11/2 68/12/2 104/10/2
usemtl body_front
f 10/13/1 1/14/1 2/15/1
f 3/16/1 10/13/1 2/15/1
f 3/16/1 2/15/1 13/17/1
f 4/18/1 3/16/1 13/17/1
f 4/18/1 13/17/1 5/19/1
f 22/20/1 4/18/1 5/19/1
f 7/21/1 22/20/1 8/22/1
f 22/20/1 5/19/1 8/22/1
f 6/23/1 7/21/1 23/24/1
f 7/21/1 8/22/1 23/24/1
f 60/25/1 6/23/1 9/26/1
f 6/23/1 23/24/1 9/26/1
f 10/13/1 25/27/1 1/14/1
f 25/27/1 24/28/1 1/14/1
f 25/27/1 11/29/1 24/28/1
f 11/29/1 26/30/1 24/28/1
f 11/29/1 53/31/1 26/30/1
f 53/31/1 12/32/1 26/30/1
f 27/33/1 28/34/1 13/17/1
f 2/15/1 27/33/1 13/17/1
f 27/33/1 29/35/1 28/34/1
f 29/35/1 14/36/1 28/34/1
f 32/37/1 17/38/1 14/36/1
f 31/39/1 15/40/1 32/37/1
f 32/37/1 14/36/1 29/35/1
f 32/37/1 29/35/1 31/39/1
f 31/39/1 30/41/1 15/40/1
f 34/42/1 16/43/1 17/38/1
f 17/38/1 32/37/1 18/44/1
f 38/45/1 19/46/1 20/47/1
f 30/41/1 31/39/1 20/47/1
f 17/38/1 18/44/1 34/42/1
f 34/42/1 33/48/1 16/43/1
f 36/49/1 35/50/1 16/43/1
f 16/43/1 33/48/1 36/49/1
f 19/46/1 30/41/1 20/47/1
f 20/47/1 37/51/1 38/45/1
usemtl body_back
f 75/52/2 67/53/2 66/54/2
f 68/55/2 67/53/2 75/52/2
f 68/55/2 78/56/2 67/53/2
f 69/57/2 78/56/2 68/55/2
f 69/57/2 70/58/2 78/56/2
f 87/59/2 70/58/2 69/57/2
f 72/60/2 73/61/2 87/59/2
f 87/59/2 73/61/2 70/58/2
f 71/62/2 88/63/2 72/60/2
f 72/60/2 88/63/2 73/61/2
f 125/64/2 74/65/2 71/62/2
f 71/62/2 74/65/2 88/63/2
f 75/52/2 66/54/2 90/66/2
f 90/66/2 66/54/2 89/67/2
f 90/66/2 89/67/2 76/68/2
f 76/68/2 89/67/2 91/69/2
f 76/68/2 91/69/2 118/70/2
f 118/70/2 91/69/2 77/71/2
f 92/72/2 78/56/2 93/73/2
f 67/53/2 78/56/2 92/72/2
f 92/72/2 93/73/2 94/74/2
f 94/74/2 93/73/2 79/75/2
f 97/76/2 79/75/2 82/77/2
f 96/78/2 97/76/2 80/79/2
f 97/76/2 94/74/2 79/75/2
f 97/76/2 96/78/2 94/74/2
f 96/78/2 80/79/2 95/80/2
f 99/81/2 82/77/2 81/82/2
f 82/77/2 83/83/2 97/76/2
f 103/84/2 85/85/2 84/86/2
f 95/80/2 85/85/2 96/78/2
f 82/77/2 99/81/2 83/83/2
f 99/81/2 81/82/2 98/87/2
f 101/88/2 81/82/2 100/89/2
f 81/82/2 101/88/2 98/87/2
f 84/86/2 85/85/2 95/80/2
f 85/85/2 103/84/2 102/90/2
usemtl hand
f 44/91/1 45/92/1 42/93/1
f 42/93/1 45/92/1 43/94/1
f 53/95/1 51/96/1 12/97/1
f 44/91/1 50/98/1 45/92/1
f 45/92/1 50/98/1 53/95/1
f 46/99/1 49/100/1 47/101/1
f 48/102/1 49/100/1 52/103/1
f 50/98/1 46/99/1 51/96/1
f 49/100/1 46/99/1 52/103/1
f 50/98/1 51/96/1 53/95/1
f 52/103/1 46/99/1 50/98/1
f 57/104/1 56/105/1 54/106/1
f 54/106/1 56/105/1 55/107/1
f 64/108/1 56/105/1 60/109/1
f 60/109/1 56/105/1 57/104/1
f 65/110/1 58/111/1 59/112/1
f 60/109/1 61/113/1 64/108/1
f 62/114/1 58/111/1 63/115/1
f 64/108/1 63/115/1 65/110/1
f 58/111/1 65/110/1 63/115/1
f 9/116/1 61/113/1 60/109/1
f 61/113/1 63/115/1 64/108/1
f 109/117/2 107/118/2 110/119/2
f 107/118/2 108/120/2 110/119/2
f 118/121/2 77/122/2 116/123/2
f 109/117/2 110/119/2 115/124/2
f 110/119/2 118/121/2 115/124/2
f 111/125/2 112/126/2 114/127/2
f 113/128/2 117/129/2 114/127/2
f 115/124/2 116/123/2 111/125/2
f 114/127/2 117/129/2 111/125/2
f 115/124/2 118/121/2 116/123/2
f 117/129/2 115/124/2 111/125/2
f 122/130/2 119/131/2 121/132/2
f 119/131/2 120/133/2 121/132/2
f 129/134/2 125/135/2 121/132/2
f 125/135/2 122/130/2 121/132/2
f 130/136/2 124/137/2 123/138/2
f 125/135/2 129/134/2 126/139/2
f 127/140/2 128/141/2 123/138/2
f 129/134/2 130/136/2 128/141/2
f 123/138/2 128/141/2 130/136/2
f 74/142/2 125/135/2 126/139/2
f 126/139/2 129/134/2 128/141/2
